<svg id="visual" viewBox="0 0 1920 1080" width="1920" height="1080" xmlns="http://www.w3.org/2000/svg" xmlns:xlink="http://www.w3.org/1999/xlink" version="1.1"><rect x="0" y="0" width="1920" height="1080" fill="#050505"></rect><defs><linearGradient id="grad1_0" x1="43.8%" y1="0%" x2="100%" y2="100%"><stop offset="14.444444444444446%" stop-color="#fffc00" stop-opacity="1"></stop><stop offset="85.55555555555554%" stop-color="#fffc00" stop-opacity="1"></stop></linearGradient></defs><defs><linearGradient id="grad1_1" x1="43.8%" y1="0%" x2="100%" y2="100%"><stop offset="14.444444444444446%" stop-color="#fffc00" stop-opacity="1"></stop><stop offset="85.55555555555554%" stop-color="#c8c518" stop-opacity="1"></stop></linearGradient></defs><defs><linearGradient id="grad1_2" x1="43.8%" y1="0%" x2="100%" y2="100%"><stop offset="14.444444444444446%" stop-color="#93901d" stop-opacity="1"></stop><stop offset="85.55555555555554%" stop-color="#c8c518" stop-opacity="1"></stop></linearGradient></defs><defs><linearGradient id="grad1_3" x1="43.8%" y1="0%" x2="100%" y2="100%"><stop offset="14.444444444444446%" stop-color="#93901d" stop-opacity="1"></stop><stop offset="85.55555555555554%" stop-color="#625f1b" stop-opacity="1"></stop></linearGradient></defs><defs><linearGradient id="grad1_4" x1="43.8%" y1="0%" x2="100%" y2="100%"><stop offset="14.444444444444446%" stop-color="#343215" stop-opacity="1"></stop><stop offset="85.55555555555554%" stop-color="#625f1b" stop-opacity="1"></stop></linearGradient></defs><defs><linearGradient id="grad1_5" x1="43.8%" y1="0%" x2="100%" y2="100%"><stop offset="14.444444444444446%" stop-color="#343215" stop-opacity="1"></stop><stop offset="85.55555555555554%" stop-color="#050505" stop-opacity="1"></stop></linearGradient></defs><defs><linearGradient id="grad2_0" x1="0%" y1="0%" x2="56.3%" y2="100%"><stop offset="14.444444444444446%" stop-color="#fffc00" stop-opacity="1"></stop><stop offset="85.55555555555554%" stop-color="#fffc00" stop-opacity="1"></stop></linearGradient></defs><defs><linearGradient id="grad2_1" x1="0%" y1="0%" x2="56.3%" y2="100%"><stop offset="14.444444444444446%" stop-color="#c8c518" stop-opacity="1"></stop><stop offset="85.55555555555554%" stop-color="#fffc00" stop-opacity="1"></stop></linearGradient></defs><defs><linearGradient id="grad2_2" x1="0%" y1="0%" x2="56.3%" y2="100%"><stop offset="14.444444444444446%" stop-color="#c8c518" stop-opacity="1"></stop><stop offset="85.55555555555554%" stop-color="#93901d" stop-opacity="1"></stop></linearGradient></defs><defs><linearGradient id="grad2_3" x1="0%" y1="0%" x2="56.3%" y2="100%"><stop offset="14.444444444444446%" stop-color="#625f1b" stop-opacity="1"></stop><stop offset="85.55555555555554%" stop-color="#93901d" stop-opacity="1"></stop></linearGradient></defs><defs><linearGradient id="grad2_4" x1="0%" y1="0%" x2="56.3%" y2="100%"><stop offset="14.444444444444446%" stop-color="#625f1b" stop-opacity="1"></stop><stop offset="85.55555555555554%" stop-color="#343215" stop-opacity="1"></stop></linearGradient></defs><defs><linearGradient id="grad2_5" x1="0%" y1="0%" x2="56.3%" y2="100%"><stop offset="14.444444444444446%" stop-color="#050505" stop-opacity="1"></stop><stop offset="85.55555555555554%" stop-color="#343215" stop-opacity="1"></stop></linearGradient></defs><g transform="translate(1920, 0)"><path d="M0 702C-120.4 680.7 -240.8 659.5 -348.5 603.6C-456.2 547.8 -551.2 457.4 -607.9 351C-664.7 244.6 -683.4 122.3 -702 0L0 0Z" fill="#1f1e10"></path><path d="M0 585C-100.3 567.3 -200.7 549.6 -290.4 503C-380.2 456.5 -459.3 381.1 -506.6 292.5C-554 203.9 -569.5 101.9 -585 0L0 0Z" fill="#4b4818"></path><path d="M0 468C-80.3 453.8 -160.5 439.6 -232.3 402.4C-304.1 365.2 -367.4 304.9 -405.3 234C-443.2 163.1 -455.6 81.5 -468 0L0 0Z" fill="#7a771c"></path><path d="M0 351C-60.2 340.4 -120.4 329.7 -174.2 301.8C-228.1 273.9 -275.6 228.7 -304 175.5C-332.4 122.3 -341.7 61.2 -351 0L0 0Z" fill="#adaa1b"></path><path d="M0 234C-40.1 226.9 -80.3 219.8 -116.2 201.2C-152.1 182.6 -183.7 152.5 -202.6 117C-221.6 81.5 -227.8 40.8 -234 0L0 0Z" fill="#e3e010"></path><path d="M0 117C-20.1 113.5 -40.1 109.9 -58.1 100.6C-76 91.3 -91.9 76.2 -101.3 58.5C-110.8 40.8 -113.9 20.4 -117 0L0 0Z" fill="#fffc00"></path></g><g transform="translate(0, 1080)"><path d="M0 -702C118.3 -677 236.5 -652.1 344.5 -596.7C452.5 -541.3 550.1 -455.5 607.9 -351C665.8 -246.5 683.9 -123.2 702 0L0 0Z" fill="#1f1e10"></path><path d="M0 -585C98.6 -564.2 197.1 -543.4 287.1 -497.2C377 -451.1 458.4 -379.6 506.6 -292.5C554.8 -205.4 569.9 -102.7 585 0L0 0Z" fill="#4b4818"></path><path d="M0 -468C78.8 -451.4 157.7 -434.7 229.7 -397.8C301.6 -360.9 366.7 -303.7 405.3 -234C443.9 -164.3 455.9 -82.2 468 0L0 0Z" fill="#7a771c"></path><path d="M0 -351C59.1 -338.5 118.3 -326 172.2 -298.3C226.2 -270.7 275 -227.8 304 -175.5C332.9 -123.2 342 -61.6 351 0L0 0Z" fill="#adaa1b"></path><path d="M0 -234C39.4 -225.7 78.8 -217.4 114.8 -198.9C150.8 -180.4 183.4 -151.8 202.6 -117C221.9 -82.2 228 -41.1 234 0L0 0Z" fill="#e3e010"></path><path d="M0 -117C19.7 -112.8 39.4 -108.7 57.4 -99.4C75.4 -90.2 91.7 -75.9 101.3 -58.5C111 -41.1 114 -20.5 117 0L0 0Z" fill="#fffc00"></path></g></svg>