<svg id="visual" viewBox="0 0 1920 1080" width="1920" height="1080" xmlns="http://www.w3.org/2000/svg" xmlns:xlink="http://www.w3.org/1999/xlink" version="1.1"><rect x="0" y="0" width="1920" height="1080" fill="#001220"></rect><path d="M0 762L26.7 762.7C53.3 763.3 106.7 764.7 160 768.3C213.3 772 266.7 778 320 772.7C373.3 767.3 426.7 750.7 480 746.8C533.3 743 586.7 752 640 751.8C693.3 751.7 746.7 742.3 800 746.5C853.3 750.7 906.7 768.3 960 778.3C1013.3 788.3 1066.7 790.7 1120 796.3C1173.3 802 1226.7 811 1280 817.3C1333.3 823.7 1386.7 827.3 1440 829.3C1493.3 831.3 1546.7 831.7 1600 825.3C1653.3 819 1706.7 806 1760 820.5C1813.3 835 1866.7 877 1893.3 898L1920 919L1920 1081L1893.3 1081C1866.7 1081 1813.3 1081 1760 1081C1706.7 1081 1653.3 1081 1600 1081C1546.7 1081 1493.3 1081 1440 1081C1386.7 1081 1333.3 1081 1280 1081C1226.7 1081 1173.3 1081 1120 1081C1066.7 1081 1013.3 1081 960 1081C906.7 1081 853.3 1081 800 1081C746.7 1081 693.3 1081 640 1081C586.7 1081 533.3 1081 480 1081C426.7 1081 373.3 1081 320 1081C266.7 1081 213.3 1081 160 1081C106.7 1081 53.3 1081 26.7 1081L0 1081Z" fill="#fffc00"></path><path d="M0 786L26.7 787.8C53.3 789.7 106.7 793.3 160 814.3C213.3 835.3 266.7 873.7 320 883C373.3 892.3 426.7 872.7 480 879.8C533.3 887 586.7 921 640 915.2C693.3 909.3 746.7 863.7 800 827.7C853.3 791.7 906.7 765.3 960 768.8C1013.3 772.3 1066.7 805.7 1120 820C1173.3 834.3 1226.7 829.7 1280 839.2C1333.3 848.7 1386.7 872.3 1440 874.5C1493.3 876.7 1546.7 857.3 1600 834C1653.3 810.7 1706.7 783.3 1760 804.2C1813.3 825 1866.7 894 1893.3 928.5L1920 963L1920 1081L1893.3 1081C1866.7 1081 1813.3 1081 1760 1081C1706.7 1081 1653.3 1081 1600 1081C1546.7 1081 1493.3 1081 1440 1081C1386.7 1081 1333.3 1081 1280 1081C1226.7 1081 1173.3 1081 1120 1081C1066.7 1081 1013.3 1081 960 1081C906.7 1081 853.3 1081 800 1081C746.7 1081 693.3 1081 640 1081C586.7 1081 533.3 1081 480 1081C426.7 1081 373.3 1081 320 1081C266.7 1081 213.3 1081 160 1081C106.7 1081 53.3 1081 26.7 1081L0 1081Z" fill="#f7f400"></path><path d="M0 772L26.7 793.3C53.3 814.7 106.7 857.3 160 877.8C213.3 898.3 266.7 896.7 320 887.3C373.3 878 426.7 861 480 865.5C533.3 870 586.7 896 640 896.3C693.3 896.7 746.7 871.3 800 846.8C853.3 822.3 906.7 798.7 960 819.5C1013.3 840.3 1066.7 905.7 1120 933.2C1173.3 960.7 1226.7 950.3 1280 938C1333.3 925.7 1386.7 911.3 1440 907C1493.3 902.7 1546.7 908.3 1600 899.5C1653.3 890.7 1706.7 867.3 1760 865C1813.3 862.7 1866.7 881.3 1893.3 890.7L1920 900L1920 1081L1893.3 1081C1866.7 1081 1813.3 1081 1760 1081C1706.7 1081 1653.3 1081 1600 1081C1546.7 1081 1493.3 1081 1440 1081C1386.7 1081 1333.3 1081 1280 1081C1226.7 1081 1173.3 1081 1120 1081C1066.7 1081 1013.3 1081 960 1081C906.7 1081 853.3 1081 800 1081C746.7 1081 693.3 1081 640 1081C586.7 1081 533.3 1081 480 1081C426.7 1081 373.3 1081 320 1081C266.7 1081 213.3 1081 160 1081C106.7 1081 53.3 1081 26.7 1081L0 1081Z" fill="#efec00"></path><path d="M0 899L26.7 905.7C53.3 912.3 106.7 925.7 160 921.3C213.3 917 266.7 895 320 891.7C373.3 888.3 426.7 903.7 480 918.8C533.3 934 586.7 949 640 936C693.3 923 746.7 882 800 856.5C853.3 831 906.7 821 960 828.2C1013.3 835.3 1066.7 859.7 1120 867.7C1173.3 875.7 1226.7 867.3 1280 873.5C1333.3 879.7 1386.7 900.3 1440 922.3C1493.3 944.3 1546.7 967.7 1600 950C1653.3 932.3 1706.7 873.7 1760 873.5C1813.3 873.3 1866.7 931.7 1893.3 960.8L1920 990L1920 1081L1893.3 1081C1866.7 1081 1813.3 1081 1760 1081C1706.7 1081 1653.3 1081 1600 1081C1546.7 1081 1493.3 1081 1440 1081C1386.7 1081 1333.3 1081 1280 1081C1226.7 1081 1173.3 1081 1120 1081C1066.7 1081 1013.3 1081 960 1081C906.7 1081 853.3 1081 800 1081C746.7 1081 693.3 1081 640 1081C586.7 1081 533.3 1081 480 1081C426.7 1081 373.3 1081 320 1081C266.7 1081 213.3 1081 160 1081C106.7 1081 53.3 1081 26.7 1081L0 1081Z" fill="#e7e400"></path><path d="M0 871L26.7 891.3C53.3 911.7 106.7 952.3 160 954.7C213.3 957 266.7 921 320 898.8C373.3 876.7 426.7 868.3 480 876C533.3 883.7 586.7 907.3 640 908C693.3 908.7 746.7 886.3 800 884.3C853.3 882.3 906.7 900.7 960 905.7C1013.3 910.7 1066.7 902.3 1120 893.7C1173.3 885 1226.7 876 1280 872.2C1333.3 868.3 1386.7 869.7 1440 878.5C1493.3 887.3 1546.7 903.7 1600 908C1653.3 912.3 1706.7 904.7 1760 911.5C1813.3 918.3 1866.7 939.7 1893.3 950.3L1920 961L1920 1081L1893.3 1081C1866.7 1081 1813.3 1081 1760 1081C1706.7 1081 1653.3 1081 1600 1081C1546.7 1081 1493.3 1081 1440 1081C1386.7 1081 1333.3 1081 1280 1081C1226.7 1081 1173.3 1081 1120 1081C1066.7 1081 1013.3 1081 960 1081C906.7 1081 853.3 1081 800 1081C746.7 1081 693.3 1081 640 1081C586.7 1081 533.3 1081 480 1081C426.7 1081 373.3 1081 320 1081C266.7 1081 213.3 1081 160 1081C106.7 1081 53.3 1081 26.7 1081L0 1081Z" fill="#dfdc00"></path><path d="M0 1014L26.7 1004.8C53.3 995.7 106.7 977.3 160 961.8C213.3 946.3 266.7 933.7 320 928.7C373.3 923.7 426.7 926.3 480 940C533.3 953.7 586.7 978.3 640 979.8C693.3 981.3 746.7 959.7 800 948.5C853.3 937.3 906.7 936.7 960 947C1013.3 957.3 1066.7 978.7 1120 982.5C1173.3 986.3 1226.7 972.7 1280 967.8C1333.3 963 1386.7 967 1440 968.5C1493.3 970 1546.7 969 1600 972.8C1653.3 976.7 1706.7 985.3 1760 987.3C1813.3 989.3 1866.7 984.7 1893.3 982.3L1920 980L1920 1081L1893.3 1081C1866.7 1081 1813.3 1081 1760 1081C1706.7 1081 1653.3 1081 1600 1081C1546.7 1081 1493.3 1081 1440 1081C1386.7 1081 1333.3 1081 1280 1081C1226.7 1081 1173.3 1081 1120 1081C1066.7 1081 1013.3 1081 960 1081C906.7 1081 853.3 1081 800 1081C746.7 1081 693.3 1081 640 1081C586.7 1081 533.3 1081 480 1081C426.7 1081 373.3 1081 320 1081C266.7 1081 213.3 1081 160 1081C106.7 1081 53.3 1081 26.7 1081L0 1081Z" fill="#d7d400"></path><path d="M0 1004L26.7 988.8C53.3 973.7 106.7 943.3 160 928.2C213.3 913 266.7 913 320 926.5C373.3 940 426.7 967 480 978.3C533.3 989.7 586.7 985.3 640 974.5C693.3 963.7 746.7 946.3 800 948.8C853.3 951.3 906.7 973.7 960 990.5C1013.3 1007.3 1066.7 1018.7 1120 1008.2C1173.3 997.7 1226.7 965.3 1280 947.5C1333.3 929.7 1386.7 926.3 1440 929.3C1493.3 932.3 1546.7 941.7 1600 945.8C1653.3 950 1706.7 949 1760 948.8C1813.3 948.7 1866.7 949.3 1893.3 949.7L1920 950L1920 1081L1893.3 1081C1866.7 1081 1813.3 1081 1760 1081C1706.7 1081 1653.3 1081 1600 1081C1546.7 1081 1493.3 1081 1440 1081C1386.7 1081 1333.3 1081 1280 1081C1226.7 1081 1173.3 1081 1120 1081C1066.7 1081 1013.3 1081 960 1081C906.7 1081 853.3 1081 800 1081C746.7 1081 693.3 1081 640 1081C586.7 1081 533.3 1081 480 1081C426.7 1081 373.3 1081 320 1081C266.7 1081 213.3 1081 160 1081C106.7 1081 53.3 1081 26.7 1081L0 1081Z" fill="#cfcc00"></path><path d="M0 993L26.7 998.2C53.3 1003.3 106.7 1013.7 160 1006C213.3 998.3 266.7 972.7 320 959.8C373.3 947 426.7 947 480 961.3C533.3 975.7 586.7 1004.3 640 1007.8C693.3 1011.3 746.7 989.7 800 976.2C853.3 962.7 906.7 957.3 960 968.5C1013.3 979.7 1066.7 1007.3 1120 1006.8C1173.3 1006.3 1226.7 977.7 1280 972C1333.3 966.3 1386.7 983.7 1440 988.7C1493.3 993.7 1546.7 986.3 1600 993.2C1653.3 1000 1706.7 1021 1760 1029.8C1813.3 1038.7 1866.7 1035.3 1893.3 1033.7L1920 1032L1920 1081L1893.3 1081C1866.7 1081 1813.3 1081 1760 1081C1706.7 1081 1653.3 1081 1600 1081C1546.7 1081 1493.3 1081 1440 1081C1386.7 1081 1333.3 1081 1280 1081C1226.7 1081 1173.3 1081 1120 1081C1066.7 1081 1013.3 1081 960 1081C906.7 1081 853.3 1081 800 1081C746.7 1081 693.3 1081 640 1081C586.7 1081 533.3 1081 480 1081C426.7 1081 373.3 1081 320 1081C266.7 1081 213.3 1081 160 1081C106.7 1081 53.3 1081 26.7 1081L0 1081Z" fill="#c7c400"></path><path d="M0 1037L26.7 1037.3C53.3 1037.7 106.7 1038.3 160 1030.3C213.3 1022.3 266.7 1005.7 320 998.7C373.3 991.7 426.7 994.3 480 1002.8C533.3 1011.3 586.7 1025.7 640 1023.8C693.3 1022 746.7 1004 800 997.3C853.3 990.7 906.7 995.3 960 1000.8C1013.3 1006.3 1066.7 1012.7 1120 1011C1173.3 1009.3 1226.7 999.7 1280 1002.3C1333.3 1005 1386.7 1020 1440 1030.2C1493.3 1040.3 1546.7 1045.7 1600 1048.3C1653.3 1051 1706.7 1051 1760 1042.8C1813.3 1034.7 1866.7 1018.3 1893.3 1010.2L1920 1002L1920 1081L1893.3 1081C1866.7 1081 1813.3 1081 1760 1081C1706.7 1081 1653.3 1081 1600 1081C1546.7 1081 1493.3 1081 1440 1081C1386.7 1081 1333.3 1081 1280 1081C1226.7 1081 1173.3 1081 1120 1081C1066.7 1081 1013.3 1081 960 1081C906.7 1081 853.3 1081 800 1081C746.7 1081 693.3 1081 640 1081C586.7 1081 533.3 1081 480 1081C426.7 1081 373.3 1081 320 1081C266.7 1081 213.3 1081 160 1081C106.7 1081 53.3 1081 26.7 1081L0 1081Z" fill="#c0bd00"></path><path d="M0 1018L26.7 1017.3C53.3 1016.7 106.7 1015.3 160 1016.7C213.3 1018 266.7 1022 320 1029.8C373.3 1037.7 426.7 1049.3 480 1049.2C533.3 1049 586.7 1037 640 1033.2C693.3 1029.3 746.7 1033.7 800 1033.7C853.3 1033.7 906.7 1029.3 960 1029.7C1013.3 1030 1066.7 1035 1120 1034.7C1173.3 1034.3 1226.7 1028.7 1280 1030C1333.3 1031.3 1386.7 1039.7 1440 1044.2C1493.3 1048.7 1546.7 1049.3 1600 1045C1653.3 1040.7 1706.7 1031.3 1760 1025.5C1813.3 1019.7 1866.7 1017.3 1893.3 1016.2L1920 1015L1920 1081L1893.3 1081C1866.7 1081 1813.3 1081 1760 1081C1706.7 1081 1653.3 1081 1600 1081C1546.7 1081 1493.3 1081 1440 1081C1386.7 1081 1333.3 1081 1280 1081C1226.7 1081 1173.3 1081 1120 1081C1066.7 1081 1013.3 1081 960 1081C906.7 1081 853.3 1081 800 1081C746.7 1081 693.3 1081 640 1081C586.7 1081 533.3 1081 480 1081C426.7 1081 373.3 1081 320 1081C266.7 1081 213.3 1081 160 1081C106.7 1081 53.3 1081 26.7 1081L0 1081Z" fill="#b8b500"></path></svg>